<svg width="18" height="20" viewBox="0 0 18 20" fill="none" xmlns="http://www.w3.org/2000/svg">
<path fill-rule="evenodd" clip-rule="evenodd" d="M0 4V16C0 18.2091 1.79086 20 4 20H8.34315C8.65091 20 8.95502 19.9645 9.25 19.8959V16C9.25 13.3766 11.3766 11.25 14 11.25H17.8959C17.9645 10.955 18 10.6509 18 10.3431V4C18 1.79086 16.2091 0 14 0H4C1.79086 0 0 1.79086 0 4ZM11.1716 18.8284C11.039 18.961 10.898 19.0833 10.75 19.1949V16C10.75 14.2051 12.2051 12.75 14 12.75H17.1949C17.0833 12.898 16.961 13.039 16.8284 13.1716L11.1716 18.8284ZM8.11612 5.94449C8.15858 5.90202 8.20334 5.86325 8.25 5.82817V9.99994C8.25 10.4142 8.58579 10.7499 9 10.7499C9.41421 10.7499 9.75 10.4142 9.75 9.99994V5.82817C9.79666 5.86325 9.84142 5.90202 9.88388 5.94449L11.4697 7.53027C11.7626 7.82316 12.2374 7.82316 12.5303 7.53027C12.8232 7.23738 12.8232 6.76251 12.5303 6.46961L10.9445 4.88382C9.8706 3.80988 8.1294 3.80988 7.05546 4.88383L5.46967 6.46961C5.17678 6.76251 5.17678 7.23738 5.46967 7.53027C5.76256 7.82316 6.23744 7.82316 6.53033 7.53027L8.11612 5.94449Z" fill="#646464"/>
</svg>
